<svg id="Capa_1" enable-background="new 0 0 511.998 511.998" height="512" viewBox="0 0 511.998 511.998" width="512" xmlns="http://www.w3.org/2000/svg"><g><path d="m139.898 347.068-36.157-5.254-16.17-32.765h-26.924l-16.17 32.765-36.159 5.254-8.318 25.606 26.163 25.504-6.177 36.013 21.784 15.824 32.339-17.002 32.341 17.003 21.781-15.826-6.175-36.012 26.164-25.504z"/><path d="m321.79 347.068-36.158-5.254-16.171-32.765h-26.924l-16.17 32.765-36.159 5.254-8.318 25.606 26.163 25.504-6.176 36.012 21.781 15.826 32.341-17.003 32.34 17.002 21.783-15.824-6.177-36.013 26.163-25.504z"/><path d="m511.998 372.674-8.318-25.606-36.159-5.254-16.17-32.765h-26.924l-16.17 32.765-36.157 5.254-8.322 25.606 26.164 25.504-6.175 36.012 21.781 15.826 32.341-17.003 32.34 17.002 21.783-15.824-6.177-36.013z"/><path d="m374.755 157.886-8.188-25.194-67.248-9.771-30.075-60.939h-26.49l-30.075 60.939-67.248 9.771-8.188 25.194 48.663 47.434-11.488 66.979 21.433 15.569 60.148-31.622 60.148 31.622 21.433-15.569-11.488-66.979z"/></g></svg>