<?xml version="1.0" encoding="utf-8"?>
<!-- Svg Vector Icons : http://www.onlinewebfonts.com/icon -->
<!DOCTYPE svg PUBLIC "-//W3C//DTD SVG 1.1//EN" "http://www.w3.org/Graphics/SVG/1.1/DTD/svg11.dtd">
<svg version="1.1" xmlns="http://www.w3.org/2000/svg" xmlns:xlink="http://www.w3.org/1999/xlink" x="0px" y="0px" viewBox="0 0 1000 1000" enable-background="new 0 0 1000 1000" xml:space="preserve">
<metadata> Svg Vector Icons : http://www.onlinewebfonts.com/icon </metadata>
<g><g transform="translate(0.000000,511.000000) scale(0.100000,-0.100000)"><path d="M267.3,4977.3c-31.1-16.7-83.7-66.9-112.3-110l-55-81.3V3581.4c0-1321.8,0-1331.4,141-1403.1c62.2-33.5,231.9-38.2,1302.7-38.2c879.6,0,1247.7,7.2,1290.7,28.7c33.5,14.3,81.3,55,102.8,88.4c40.6,57.4,43,162.5,50.2,1274c7.2,1340.9,7.2,1336.1-143.4,1429.4c-76.5,45.4-117.1,47.8-1297.9,47.8C618.7,5008.3,312.7,5001.2,267.3,4977.3z M2413.7,3569.4l4.8-855.7h-872.4H673.7v860.5v860.5l867.7-4.8l865.3-7.2L2413.7,3569.4z"/><path d="M3704.5,4970.1c-141-74.1-138.6-59.8-138.6-1422.2V2302.6l81.3-81.3l81.3-81.3H5000h1271.6l81.3,81.3l81.3,81.3v1245.3c0,1369.6,2.4,1350.5-143.4,1424.6C6188,5025.1,3802.5,5025.1,3704.5,4970.1z M5860.5,3574.2v-860.5H5000h-860.5v860.5v860.5H5000h860.5V3574.2z"/><path d="M7156,4960.5c-148.2-90.8-148.2-90.8-148.2-1400.7c0-1305.1,0-1309.8,145.8-1383.9c100.4-52.6,2500.2-52.6,2600.6,0C9900,2250,9900,2254.8,9900,3581.4v1204.7l-55,81.3c-28.7,43-81.3,93.2-112.3,110c-45.4,23.9-351.4,31.1-1278.8,31.1C7273.1,5008.3,7232.5,5006,7156,4960.5z M9326.3,3574.2v-860.5h-872.4h-872.4v843.7c0,466.1,7.2,853.3,16.7,860.5c7.2,9.6,401.6,16.7,872.4,16.7h855.7V3574.2z"/><path d="M200.4,1461.2L112,1380l-7.2-1235.8C97.6-1211.1,97.6-1199.1,241-1285.2c62.2-35.8,184.1-40.6,1312.2-40.6c1238.1,0,1240.5,0,1307.5,52.6c131.5,102.8,131.5,109.9,131.5,1381.5c0,1271.6,0,1278.8-131.5,1381.6c-66.9,52.6-69.3,52.6-1317,52.6H291.2L200.4,1461.2z M2418.5,108.3v-860.5h-872.4H673.7v860.5v860.5h872.4h872.4V108.3z"/><path d="M3704.5,1504.2c-141-74.1-138.6-62.1-138.6-1395.9c0-1340.9-2.4-1324.2,143.4-1398.3c105.2-55,2476.3-55,2581.5,0c145.8,74.1,143.4,57.4,143.4,1398.3s2.4,1324.2-143.4,1398.3C6188,1559.2,3802.5,1559.2,3704.5,1504.2z M5860.5,108.3v-860.5H5000h-860.5v860.5v860.5H5000h860.5V108.3z"/><path d="M7139.3,1489.9c-131.5-102.8-131.5-109.9-131.5-1381.6c0-1271.6,0-1278.8,131.5-1381.5c66.9-52.6,69.3-52.6,1307.5-52.6c1128.2,0,1250.1,4.8,1312.2,40.6c143.4,86,143.4,74.1,136.3,1429.4L9888,1380l-88.4,81.3l-90.8,81.3H8456.3C7208.6,1542.5,7206.2,1542.5,7139.3,1489.9z M9326.3,108.3v-860.5h-872.4h-872.4v860.5v860.5h872.4h872.4V108.3z"/><path d="M523.1-1918.6c-172.1-4.8-253.4-16.7-296.4-45.4C102.4-2045.3,100-2066.8,100-3350.3c0-1331.4-2.4-1314.6,167.3-1398.3c76.5-38.2,188.8-43,1290.7-43c1168.8,0,1209.5,2.4,1285.9,47.8c150.6,93.2,150.6,88.4,143.4,1429.4c-7.2,1121-9.6,1216.6-50.2,1274c-78.9,117.1-112.3,119.5-1178.4,124.3C1206.7-1913.8,652.1-1913.8,523.1-1918.6z M2413.7-3350.3l-7.2-855.7h-860.5H685.6l-7.2,855.7l-4.8,853.3h872.4h872.4L2413.7-3350.3z"/><path d="M3905.3-1923.3c-188.8-12-203.2-16.7-270.1-90.8l-69.3-76.5V-3336c0-1362.4-2.4-1345.7,143.4-1419.8c59.8-31.1,246.2-35.8,1295.5-35.8c1171.2,0,1228.6,2.4,1295.5,45.4c136.2,90.8,131.5,55,133.8,1410.2v1250.1l-81.3,81.3c-64.5,64.5-100.4,81.3-174.5,83.7C5533-1913.8,4058.2-1913.8,3905.3-1923.3z M5860.5-3357.5V-4218H5000h-860.5v860.5v860.5H5000h860.5V-3357.5z"/><path d="M7318.5-1925.8c-164.9-16.7-200.8-33.5-255.8-112.3c-40.6-59.8-43-153-50.2-1276.4c-7.2-1340.9-7.2-1336.1,143.4-1429.4c76.5-45.4,117.1-47.8,1297.9-47.8c927.4,0,1233.3,7.2,1278.8,31.1c31.1,16.7,83.7,66.9,112.3,110l55,81.3v1204.7c0,1305.1-2.4,1317-129.1,1403.1c-59.8,38.3-160.1,40.6-1192.7,45.4C7956.7-1913.8,7390.2-1918.6,7318.5-1925.8z M9326.3-3357.5V-4218l-865.3,4.8l-867.7,7.2l-7.2,855.7l-4.8,853.3h872.4h872.4V-3357.5z"/></g></g>
</svg>